# Blender v2.76 (sub 0) OBJ File: 'New Carriage.blend'
# www.blender.org
o Chair_single_Cube.000
v -2.682479 7.183486 -2.415445
v 2.709922 7.179060 -2.495256
v 2.710834 7.412728 -2.507160
v -2.681566 7.417153 -2.427349
v 2.712812 5.827396 -2.721714
v 2.693753 5.744248 -3.217256
v 2.693753 8.280796 -3.280054
v 2.713093 8.307370 -2.789941
v 2.713408 8.182139 -2.703033
v 2.713201 8.024899 -2.631476
v 2.712612 7.840808 -2.575095
v 2.711776 7.635033 -2.533714
v 2.710834 7.412728 -2.507160
v 2.709922 7.179060 -2.495256
v 2.709178 6.939187 -2.497828
v 2.708741 6.698269 -2.514702
v 2.708747 6.461473 -2.545703
v 2.709336 6.233953 -2.590655
v 2.710645 6.020875 -2.649383
v 2.711776 7.635033 -2.533714
v -2.680624 7.639459 -2.453903
v -2.679836 5.764351 -2.623254
v -2.698054 0.791402 -1.248760
v 2.699085 0.790741 -1.251086
v 2.712629 5.760201 -2.702094
v 2.712612 7.840808 -2.575095
v -2.679788 7.845233 -2.495284
v -2.681755 6.025300 -2.569572
v 2.710645 6.020875 -2.649383
v 2.709336 6.233953 -2.590655
v -2.683064 6.238379 -2.510844
v 2.713201 8.024899 -2.631476
v -2.679199 8.029324 -2.551666
v 2.708747 6.461473 -2.545703
v -2.683653 6.465899 -2.465892
v 2.713408 8.182139 -2.703033
v -2.678993 8.186564 -2.623223
v 2.708741 6.698269 -2.514702
v -2.683659 6.702695 -2.434891
v 2.713093 8.307370 -2.789941
v -2.679307 8.311795 -2.710130
v 2.709178 6.939187 -2.497828
v -2.683222 6.943613 -2.418017
v 2.693753 8.280796 -3.280054
v -2.698647 8.285223 -3.200243
v -2.438647 -0.545282 2.536761
v 2.438646 -0.545282 2.536762
v 2.438646 0.285703 2.536762
v -2.438648 0.293597 2.536760
v 2.698648 -0.545282 -2.108321
v 2.698646 -0.545282 2.276795
v 2.685920 -0.545282 2.357129
v 2.648990 -0.545282 2.429600
v 2.591470 -0.545282 2.487112
v 2.518990 -0.545282 2.524038
v -2.518992 -0.545282 2.524036
v -2.591471 -0.545282 2.487109
v -2.648992 -0.545282 2.429593
v -2.685922 -0.545282 2.357119
v -2.698647 -0.545282 2.276780
v -2.698646 -0.545282 -2.108322
v -2.698281 0.729245 -1.218896
v -2.702243 0.618789 -1.208244
v -2.698648 0.559252 2.276779
v -2.698646 0.625947 -1.036387
v -2.680323 5.897396 -2.617389
v 2.712077 5.892971 -2.697199
v -2.698647 5.748674 -3.137445
v 2.698646 0.551151 2.276795
v 2.698647 0.625947 -1.036386
v 2.712812 5.827396 -2.721714
v 2.698647 0.629733 -1.204075
v 2.698647 0.629733 -1.204075
v 2.698917 0.728837 -1.220331
v 2.698775 0.675782 -1.168729
v 2.698680 0.639652 -1.104136
v -2.698473 0.675975 -1.168049
v -2.698601 0.639701 -1.103960
v -2.679810 5.806871 -2.629294
v -2.682242 5.820248 -2.710888
v -2.679989 5.855569 -2.627147
v 2.712420 5.851182 -2.706828
v 2.712622 5.802585 -2.708619
v -2.685923 0.544889 2.357118
v -2.648992 0.506440 2.429592
v -2.591472 0.447669 2.487108
v -2.518992 0.374328 2.524035
v 2.685920 0.536633 2.357129
v 2.648990 0.498126 2.429600
v 2.591470 0.439401 2.487112
v 2.518990 0.366205 2.524038
v 2.693753 5.744248 -3.217256
vt 0.973013 0.080001
vt 0.639637 0.078661
vt 0.639634 0.063305
vt 0.973010 0.064645
vt 0.592572 0.647000
vt 0.623227 0.642342
vt 0.623227 0.808931
vt 0.592994 0.809884
vt 0.587822 0.801524
vt 0.583645 0.791088
vt 0.580444 0.778913
vt 0.578202 0.765340
vt 0.576900 0.750706
vt 0.576520 0.735350
vt 0.577043 0.719609
vt 0.578451 0.703824
vt 0.580726 0.688332
vt 0.583850 0.673471
vt 0.587805 0.659581
vt 0.639618 0.048617
vt 0.972994 0.049957
vt 0.972362 0.171804
vt 0.972998 0.504419
vt 0.639375 0.503234
vt 0.638982 0.170451
vt 0.639596 0.034934
vt 0.972971 0.036274
vt 0.972579 0.155004
vt 0.639203 0.153664
vt 0.639373 0.140023
vt 0.972749 0.141363
vt 0.639574 0.022593
vt 0.972950 0.023933
vt 0.639494 0.125365
vt 0.972870 0.126705
vt 0.639561 0.011930
vt 0.972937 0.013270
vt 0.639574 0.110028
vt 0.972950 0.111368
vt 0.639562 0.003283
vt 0.972938 0.004623
vt 0.639619 0.094347
vt 0.972995 0.095687
vt 0.296421 0.948160
vt 0.296421 0.594082
vt 0.325611 0.594905
vt 0.325611 0.948983
vt 0.996909 0.525260
vt 0.996909 0.845467
vt 0.945700 0.845425
vt 0.945214 0.525218
vt 0.003091 0.594082
vt 0.274169 0.594082
vt 0.279135 0.594918
vt 0.283615 0.597343
vt 0.287170 0.601119
vt 0.289453 0.605878
vt 0.290239 0.611153
vt 0.290239 0.931375
vt 0.289453 0.936650
vt 0.287170 0.941408
vt 0.283615 0.945185
vt 0.279134 0.947609
vt 0.274168 0.948445
vt 0.003091 0.948445
vt 0.566025 0.513878
vt 0.567222 0.509533
vt 0.566495 0.521148
vt 0.632800 0.587009
vt 0.366083 0.633578
vt 0.355098 0.562015
vt 0.555953 0.522509
vt 0.972430 0.163126
vt 0.639054 0.161786
vt 0.336719 0.169443
vt 0.003338 0.169695
vt 0.003198 0.003534
vt 0.336578 0.003283
vt 0.556126 0.996717
vt 0.355400 0.996704
vt 0.355463 0.642342
vt 0.556077 0.642354
vt 0.000000 0.000000
vt 0.898328 0.986561
vt 0.897855 0.981993
vt 0.862849 0.644159
vt 0.861715 0.633213
vt 0.336719 0.587481
vt 0.003091 0.587517
vt 0.861642 0.639806
vt 0.859073 0.635789
vt 0.855532 0.632718
vt 0.851559 0.631062
vt 0.973013 0.508643
vt 0.639387 0.507445
vt 0.342901 0.996717
vt 0.343045 0.642361
vt 0.346841 0.642351
vt 0.346739 0.996710
vt 0.351202 0.642344
vt 0.351129 0.996706
vt 0.601279 0.172732
vt 0.601224 0.169913
vt 0.606065 0.168180
vt 0.600610 0.166780
vt 0.599602 0.164174
vt 0.896132 0.990522
vt 0.897167 0.987930
vt 0.897797 0.984808
vt 0.638990 0.167643
vt 0.972367 0.168989
vt 0.639016 0.164471
vt 0.972392 0.165813
vt 0.581226 0.006760
vt 0.611393 0.003283
vt 0.632800 0.168293
vt 0.595428 0.156396
vt 0.589743 0.143214
vt 0.584749 0.128951
vt 0.580509 0.113938
vt 0.577084 0.098508
vt 0.574539 0.082994
vt 0.572934 0.067727
vt 0.572334 0.053042
vt 0.572801 0.039270
vt 0.574396 0.026744
vt 0.577184 0.015796
vt 0.563463 0.517869
vt 0.559926 0.520900
vt 0.361135 0.634427
vt 0.350293 0.563794
vt 0.356550 0.635184
vt 0.346091 0.567043
vt 0.352776 0.635776
vt 0.342901 0.571443
vt 0.935476 0.515208
vt 0.996667 0.515258
vt 0.996847 0.519993
vt 0.940176 0.519947
vt 0.662648 0.517664
vt 0.650895 0.588561
vt 0.646128 0.586701
vt 0.657724 0.516743
vt 0.642023 0.583365
vt 0.653207 0.515897
vt 0.638982 0.578879
vt 0.649537 0.515208
vt 0.996667 0.855531
vt 0.935986 0.855482
vt 0.940677 0.850704
vt 0.996847 0.850749
vt 0.561116 0.643191
vt 0.561167 0.995883
vt 0.566012 0.645617
vt 0.566064 0.993460
vt 0.570285 0.649396
vt 0.570338 0.989686
vt 0.929295 0.567515
vt 0.929295 0.986806
vn 0.014800 0.050800 0.998600
vn 0.999700 -0.001100 -0.025100
vn 0.014800 0.118500 0.992800
vn 0.007400 0.273300 0.961900
vn 0.014700 0.197100 0.980300
vn 0.014000 -0.265600 0.964000
vn 0.014400 0.292800 0.956100
vn 0.014400 -0.193800 0.980900
vn 0.013800 0.414200 0.910100
vn 0.014600 -0.129800 0.991400
vn 0.012600 0.570100 0.821500
vn 0.014700 -0.069900 0.997400
vn 0.000000 0.998500 -0.054100
vn 0.014800 -0.010800 0.999800
vn -0.000000 0.000000 1.000000
vn 0.000000 -1.000000 0.000000
vn -0.995500 0.043800 0.083500
vn -1.000000 -0.000000 -0.000000
vn 0.013600 -0.350000 0.936600
vn -0.014800 -0.024700 -0.999600
vn 0.000800 0.999800 0.021300
vn 0.402300 -0.020800 -0.915300
vn 0.319900 -0.020800 -0.947200
vn 0.319900 -0.020500 -0.947200
vn -0.203100 0.000000 -0.102600
vn 0.236000 -0.020400 -0.971600
vn -0.047900 0.000000 -0.024200
vn -0.007400 -0.167500 -0.985800
vn 1.000000 -0.002700 -0.000000
vn 1.000000 -0.002700 -0.000100
vn 0.000400 0.439000 0.898500
vn 0.000200 0.693900 0.720100
vn 0.000100 0.871500 0.490400
vn 0.000000 0.980000 0.198900
vn 0.997800 0.011300 -0.065700
vn 0.996700 0.015600 -0.080300
vn 0.512500 -0.128100 0.432400
vn 0.995200 0.020000 -0.095800
vn 0.529500 -0.132400 0.446700
vn -0.999500 0.005000 0.030600
vn -0.999600 -0.004900 0.029000
vn -0.999300 -0.015800 0.033600
vn 0.999800 0.003400 0.021000
vn 0.999800 0.003400 0.020900
vn 0.014600 0.146400 0.989100
vn 0.014700 -0.040400 0.999100
vn 0.014200 -0.225700 0.974100
vn -0.999700 0.001200 0.025100
vn -0.998500 0.039400 0.037500
vn -0.998500 0.048100 0.025200
vn -0.996000 0.087700 0.017200
vn -0.999900 0.003700 0.009900
vn -0.987700 -0.000000 0.156400
vn -0.891000 -0.000000 0.454000
vn -0.707100 0.000000 0.707100
vn -0.454000 0.000000 0.891000
vn -0.156400 0.000000 0.987700
vn 0.987700 0.000000 0.156500
vn 0.891000 0.000000 0.454000
vn 0.707100 0.000000 0.707200
vn 0.453900 0.000000 0.891000
vn 0.156400 0.000000 0.987700
vn 0.001500 0.984200 0.176900
vn 0.001400 0.883200 0.468900
vn 0.001100 0.699600 0.714600
vn 0.000700 0.450100 0.893000
vn 0.000300 0.155900 0.987800
vn 1.000000 0.000000 0.000000
vn 0.999900 -0.003200 -0.010500
s 1
f 1/1/1 2/2/1 3/3/1 4/4/1
f 5/5/2 6/6/2 7/7/2 8/8/2 9/9/2 10/10/2 11/11/2 12/12/2 13/13/2 14/14/2 15/15/2 16/16/2 17/17/2 18/18/2 19/19/2
f 4/4/3 3/3/3 20/20/3 21/21/3
f 22/22/4 23/23/4 24/24/4 25/25/4
f 21/21/5 20/20/5 26/26/5 27/27/5
f 28/28/6 29/29/6 30/30/6 31/31/6
f 27/27/7 26/26/7 32/32/7 33/33/7
f 31/31/8 30/30/8 34/34/8 35/35/8
f 33/33/9 32/32/9 36/36/9 37/37/9
f 35/35/10 34/34/10 38/38/10 39/39/10
f 37/37/11 36/36/11 40/40/11 41/41/11
f 39/39/12 38/38/12 42/42/12 43/43/12
f 41/44/13 40/45/13 44/46/13 45/47/13
f 43/43/14 42/42/14 2/2/14 1/1/14
f 46/48/15 47/49/15 48/50/15 49/51/15
f 50/52/16 51/53/16 52/54/16 53/55/16 54/56/16 55/57/16 47/58/16 46/59/16 56/60/16 57/61/16 58/62/16 59/63/16 60/64/16 61/65/16
f 62/66/17 23/67/17 63/68/17
f 61/69/18 60/70/18 64/71/18 65/72/18
f 66/73/19 67/74/19 29/29/19 28/28/19
f 6/75/20 68/76/20 45/77/20 7/78/20
f 69/79/21 70/80/21 65/81/21 64/82/21
f 40/83/15 36/83/15 9/83/15 8/83/15
f 44/83/15 40/83/15 8/83/15 7/83/15
f 26/83/15 20/83/15 12/83/15 11/83/15
f 36/83/15 32/83/15 10/83/15 9/83/15
f 20/83/15 3/83/15 13/83/15 12/83/15
f 71/84/22 25/85/23 24/86/24 72/87/25 73/87/26 5/84/27
f 30/83/15 29/83/15 19/83/15 18/83/15
f 34/83/15 30/83/15 18/83/15 17/83/15
f 38/83/15 34/83/15 17/83/15 16/83/15
f 42/83/15 38/83/15 16/83/15 15/83/15
f 2/83/15 42/83/15 15/83/15 14/83/15
f 32/83/15 26/83/15 11/83/15 10/83/15
f 3/83/15 2/83/15 14/83/15 13/83/15
f 6/75/28 50/88/28 61/89/28 68/76/28
f 24/86/29 74/90/29 72/87/30
f 74/90/29 75/91/30 72/87/30
f 75/91/30 76/92/30 72/87/30
f 76/92/30 70/93/30 72/87/30
f 24/24/31 23/23/31 62/94/31 74/95/31
f 74/96/32 62/97/32 77/98/32 75/99/32
f 75/99/33 77/98/33 78/100/33 76/101/33
f 76/101/34 78/100/34 65/81/34 70/80/34
f 29/83/35 67/83/36 71/83/37 5/83/38 19/83/39
f 22/102/40 79/103/40 80/104/40
f 79/103/41 81/105/41 80/104/41
f 81/105/42 66/106/42 80/104/42
f 67/107/43 82/108/44 71/84/44
f 82/108/44 83/109/44 71/84/44
f 83/109/44 25/85/44 71/84/44
f 22/22/45 25/25/45 83/110/45 79/111/45
f 79/111/46 83/110/46 82/112/46 81/113/46
f 81/113/47 82/112/47 67/74/47 66/73/47
f 41/114/48 45/115/48 68/116/48 80/104/48 66/106/48 28/117/48 31/118/48 35/119/48 39/120/48 43/121/48 1/122/48 4/123/48 21/124/48 27/125/48 33/126/48 37/127/48
f 77/128/49 62/66/49 63/68/49
f 78/129/50 77/128/50 63/68/50
f 65/72/51 78/129/51 63/68/51
f 68/116/52 61/69/52 65/72/52 63/68/52 23/67/52 22/102/52 80/104/52
f 64/71/53 60/70/53 59/130/53 84/131/53
f 84/131/54 59/130/54 58/132/54 85/133/54
f 85/133/55 58/132/55 57/134/55 86/135/55
f 86/136/56 57/137/56 56/138/56 87/139/56
f 87/139/57 56/138/57 46/48/57 49/51/57
f 51/140/58 69/141/58 88/142/58 52/143/58
f 52/143/59 88/142/59 89/144/59 53/145/59
f 53/145/60 89/144/60 90/146/60 54/147/60
f 54/148/61 90/149/61 91/150/61 55/151/61
f 55/151/62 91/150/62 48/50/62 47/49/62
f 69/79/63 64/82/63 84/152/63 88/153/63
f 88/153/64 84/152/64 85/154/64 89/155/64
f 89/155/65 85/154/65 86/156/65 90/157/65
f 90/149/66 86/136/66 87/139/66 91/150/66
f 91/150/67 87/139/67 49/51/67 48/50/67
f 50/158/68 70/93/68 69/141/68 51/140/68
f 70/93/69 50/158/69 6/159/69 71/84/69 25/85/69 24/86/69 72/87/69
