# Blender v2.76 (sub 0) OBJ File: 'New Carriage.blend'
# www.blender.org
o Support_Cube.003
v 5.796717 -5.919879 2.344909
v 5.796717 0.232709 2.344909
v 5.796717 -5.919879 -2.344910
v 5.796717 0.232709 -2.344910
v 5.299959 -5.919879 2.344909
v 5.299959 0.232709 2.344909
v 5.299959 -5.919879 -2.344910
v 5.299959 0.232709 -2.344910
v 5.796717 -0.232710 2.344909
v 5.796717 -0.232710 -2.344910
v 5.299959 -2.232710 -2.344910
v 3.299959 -0.232710 -2.344910
v 5.299959 0.232659 -2.344910
v 5.796667 -0.232710 -2.344910
v 5.147717 -1.467343 -2.344910
v 4.714172 -0.818496 -2.344910
v 4.065326 -0.384951 -2.344910
v 3.299959 -0.232710 2.344909
v 5.299959 -2.232710 2.344909
v 5.796667 -0.232710 2.344909
v 5.299959 0.232659 2.344909
v 4.065326 -0.384951 2.344909
v 4.714172 -0.818497 2.344909
v 5.147717 -1.467343 2.344909
v -5.796717 -5.919879 2.344909
v -5.796717 0.232709 2.344909
v -5.796717 -5.919879 -2.344910
v -5.796717 0.232709 -2.344910
v -5.299959 -5.919879 2.344909
v -5.299959 0.232709 2.344909
v -5.299959 -5.919879 -2.344910
v -5.299959 0.232709 -2.344910
v -5.796717 -0.232710 2.344909
v -5.796717 -0.232710 -2.344910
v 0.000000 0.232709 -2.344910
v 0.000000 0.232709 2.344909
v 0.000000 -0.232710 -2.344910
v 0.000000 -0.232710 2.344909
v -5.299959 -2.232710 -2.344910
v -3.299959 -0.232710 -2.344910
v -5.299959 0.232659 -2.344910
v -5.796667 -0.232710 -2.344910
v -5.147717 -1.467343 -2.344910
v -4.714172 -0.818496 -2.344910
v -4.065326 -0.384951 -2.344910
v -3.299959 -0.232710 2.344909
v -5.299959 -2.232710 2.344909
v -5.796667 -0.232710 2.344909
v -5.299959 0.232659 2.344909
v -4.065326 -0.384951 2.344909
v -4.714172 -0.818497 2.344909
v -5.147717 -1.467343 2.344909
vt 0.648385 0.575272
vt 0.648385 0.842938
vt 0.436030 0.842938
vt 0.436030 0.575272
vt 0.285381 0.025764
vt 0.306455 0.120007
vt 0.306455 0.275506
vt 0.285381 0.275506
vt 0.285381 0.002356
vt 0.306455 0.002356
vt 0.259779 0.120007
vt 0.280851 0.025764
vt 0.280853 0.275506
vt 0.259779 0.275506
vt 0.834895 0.469506
vt 0.812402 0.469506
vt 0.812402 0.248515
vt 0.834895 0.248515
vt 0.568498 0.025764
vt 0.568498 0.002356
vt 0.780853 0.002356
vt 0.780853 0.025764
vt 0.780853 0.275505
vt 0.568498 0.275505
vt 0.002264 0.620007
vt 0.214619 0.620007
vt 0.214619 0.775506
vt 0.002264 0.775506
vt 0.648385 0.553367
vt 0.436030 0.553367
vt 0.259779 0.002358
vt 0.169219 0.025764
vt 0.002264 0.025764
vt 0.002264 0.002356
vt 0.563970 0.002356
vt 0.563970 0.025764
vt 0.397015 0.025764
vt 0.280853 0.002356
vt 0.362359 0.032938
vt 0.332980 0.053367
vt 0.313349 0.083942
vt 0.252885 0.083942
vt 0.233254 0.053367
vt 0.203875 0.032938
vt 0.865268 0.621278
vt 0.652913 0.621278
vt 0.652913 0.584905
vt 0.865268 0.584905
vt 0.652913 0.553367
vt 0.865268 0.553367
vt 0.002264 0.553367
vt 0.214619 0.553367
vt 0.214619 0.583942
vt 0.002264 0.583942
vt 0.865268 0.794814
vt 0.652913 0.794814
vt 0.219147 0.575272
vt 0.431502 0.575272
vt 0.431502 0.842938
vt 0.219147 0.842938
vt 0.285381 0.525247
vt 0.306455 0.431004
vt 0.285381 0.548655
vt 0.306455 0.548653
vt 0.259779 0.431004
vt 0.280853 0.525247
vt 0.785381 0.469506
vt 0.785381 0.248515
vt 0.807874 0.248515
vt 0.807874 0.469506
vt 0.568498 0.525247
vt 0.780853 0.525247
vt 0.780853 0.548655
vt 0.568498 0.548655
vt 0.002264 0.931004
vt 0.214619 0.931004
vt 0.219147 0.553367
vt 0.431502 0.553367
vt 0.259779 0.548653
vt 0.002264 0.548655
vt 0.002264 0.525247
vt 0.169219 0.525247
vt 0.397015 0.525247
vt 0.563970 0.525247
vt 0.563970 0.548655
vt 0.280853 0.548655
vt 0.313349 0.467069
vt 0.332980 0.497644
vt 0.362359 0.518073
vt 0.203875 0.518073
vt 0.233255 0.497644
vt 0.252885 0.467069
vt 0.785381 0.070267
vt 0.785381 0.033894
vt 0.997736 0.033894
vt 0.997736 0.070267
vt 0.785381 0.002356
vt 0.997736 0.002356
vt 0.002264 0.997644
vt 0.002264 0.967069
vt 0.214619 0.967069
vt 0.214619 0.997644
vt 0.997736 0.243803
vt 0.785381 0.243803
vn 1.000000 0.000000 0.000000
vn -0.000000 0.000000 -1.000000
vn 0.000000 0.000000 1.000000
vn 0.000000 -1.000000 0.000000
vn 0.000000 1.000000 0.000000
vn -0.980800 -0.195100 -0.000000
vn -0.831500 -0.555600 -0.000000
vn -0.555600 -0.831500 -0.000000
vn -0.195100 -0.980800 0.000000
vn -1.000000 0.000000 0.000000
vn 0.980800 -0.195100 -0.000000
vn 0.831500 -0.555600 -0.000000
vn 0.555600 -0.831500 -0.000000
vn 0.195100 -0.980800 0.000000
s off
f 9/1/1 1/2/1 3/3/1 10/4/1
f 8/5/2 13/5/2 12/6/2 37/7/2 35/8/2
f 4/9/2 10/10/2 14/10/2 13/5/2 8/5/2
f 18/11/3 21/12/3 6/12/3 36/13/3 38/14/3
f 1/15/4 5/16/4 7/17/4 3/18/4
f 6/19/5 2/20/5 4/21/5 8/22/5
f 6/19/5 8/22/5 35/23/5 36/24/5
f 12/25/4 18/26/4 38/27/4 37/28/4
f 2/29/1 9/1/1 10/4/1 4/30/1
f 20/31/3 19/32/3 5/33/3 1/34/3 9/31/3
f 10/10/2 3/35/2 7/36/2 11/37/2 14/10/2
f 6/12/3 21/12/3 20/31/3 9/31/3 2/38/3
f 11/37/2 15/39/2 16/40/2 17/41/2 12/6/2 13/5/2 14/10/2
f 18/11/3 22/42/3 23/43/3 24/44/3 19/32/3 20/31/3 21/12/3
f 11/45/6 19/46/6 24/47/6 15/48/6
f 15/48/7 24/47/7 23/49/7 16/50/7
f 16/51/8 23/52/8 22/53/8 17/54/8
f 17/54/9 22/53/9 18/26/9 12/25/9
f 11/45/10 7/55/10 5/56/10 19/46/10
f 33/57/10 34/58/10 27/59/10 25/60/10
f 32/61/2 35/8/2 37/7/2 40/62/2 41/61/2
f 28/63/2 32/61/2 41/61/2 42/64/2 34/64/2
f 46/65/3 38/14/3 36/13/3 30/66/3 49/66/3
f 25/67/4 27/68/4 31/69/4 29/70/4
f 30/71/5 32/72/5 28/73/5 26/74/5
f 30/71/5 36/24/5 35/23/5 32/72/5
f 40/75/4 37/28/4 38/27/4 46/76/4
f 26/77/10 28/78/10 34/58/10 33/57/10
f 48/79/3 33/79/3 25/80/3 29/81/3 47/82/3
f 34/64/2 42/64/2 39/83/2 31/84/2 27/85/2
f 30/66/3 26/86/3 33/79/3 48/79/3 49/66/3
f 39/83/2 42/64/2 41/61/2 40/62/2 45/87/2 44/88/2 43/89/2
f 46/65/3 49/66/3 48/79/3 47/82/3 52/90/3 51/91/3 50/92/3
f 39/93/11 43/94/11 52/95/11 47/96/11
f 43/94/12 44/97/12 51/98/12 52/95/12
f 44/99/13 45/100/13 50/101/13 51/102/13
f 45/100/14 40/75/14 46/76/14 50/101/14
f 39/93/1 47/96/1 29/103/1 31/104/1
