# Blender v2.76 (sub 0) OBJ File: 'New Carriage.blend'
# www.blender.org
o Floor_Cube.005
v 18.659113 -0.370000 45.542606
v 18.659113 0.370000 45.542606
v 18.659113 -0.370000 -33.765209
v 18.659113 0.370000 -33.765209
v -18.659113 -0.370000 45.542606
v -18.659113 0.370000 45.542606
v -18.659113 -0.370000 -33.765209
v -18.659113 0.370000 -33.765209
vt 0.461793 0.000617
vt 0.921736 0.000617
vt 0.921736 0.999383
vt 0.461793 0.999383
vt 0.922969 0.999383
vt 0.922969 0.000617
vt 0.947619 0.000617
vt 0.947619 0.999383
vt 0.999384 0.462279
vt 0.999384 0.922707
vt 0.974734 0.922707
vt 0.974734 0.462279
vt 0.999384 0.461045
vt 0.974734 0.461045
vt 0.974734 0.000617
vt 0.999384 0.000617
vt 0.460560 0.999383
vt 0.000616 0.999383
vt 0.000616 0.000617
vt 0.460560 0.000617
vt 0.948851 0.000617
vt 0.973501 0.000617
vt 0.973501 0.999383
vt 0.948851 0.999383
vn 0.000000 1.000000 0.000000
vn 1.000000 0.000000 0.000000
vn 0.000000 0.000000 -1.000000
vn 0.000000 0.000000 1.000000
vn 0.000000 -1.000000 0.000000
vn -1.000000 0.000000 0.000000
s off
f 6/1/1 2/2/1 4/3/1 8/4/1
f 4/5/2 2/6/2 1/7/2 3/8/2
f 3/9/3 7/10/3 8/11/3 4/12/3
f 6/13/4 5/14/4 1/15/4 2/16/4
f 1/17/5 5/18/5 7/19/5 3/20/5
f 8/21/6 7/22/6 5/23/6 6/24/6
